<svg width="32" height="32" viewBox="0 0 32 32" fill="none" xmlns="http://www.w3.org/2000/svg">
<path fill-rule="evenodd" clip-rule="evenodd" d="M12.6328 3.41153C10.5011 4.05087 8.68286 5.11803 7.14216 6.63423C6.07626 7.68317 5.25323 8.79918 4.5983 10.0838L4.25931 10.7487H7.02275H9.78624L9.81173 10.6256C10.4228 7.67366 11.5693 5.13532 12.944 3.69078C13.2008 3.42083 13.3898 3.20148 13.3638 3.20323C13.3378 3.20498 13.0088 3.29874 12.6328 3.41153ZM19.6551 3.69466C21.0224 5.13149 22.1677 7.66879 22.7835 10.6256L22.8092 10.7487H25.571H28.3329L28.0547 10.1943C27.0235 8.13949 25.443 6.34535 23.5644 5.09714C22.408 4.32881 21.1845 3.75915 19.8899 3.38637C19.534 3.28386 19.2297 3.2 19.2136 3.2C19.1976 3.2 19.3962 3.42258 19.6551 3.69466ZM15.64 3.87151C14.1214 4.38931 12.6262 6.71552 11.8143 9.82351C11.6931 10.2873 11.5939 10.6852 11.5937 10.7077C11.5936 10.7302 13.7104 10.7487 16.2977 10.7487C18.8851 10.7487 21.0019 10.7302 21.0017 10.7077C21.0016 10.6852 20.9023 10.2873 20.7812 9.82351C19.8391 6.21757 18.0025 3.73979 16.2783 3.74843C16.1235 3.7492 15.8363 3.80461 15.64 3.87151ZM3.64327 12.5402C3.59229 12.6238 3.33925 13.8563 3.26983 14.359C3.22875 14.6568 3.19894 15.3691 3.19998 16.0274C3.20195 17.2484 3.28 17.9773 3.5133 18.9538L3.63748 19.4735L6.5823 19.4877L9.52717 19.5018L9.49555 19.3236C9.26805 18.0401 9.268 13.9603 9.4955 12.6769L9.52701 12.4991H6.59761C4.98651 12.4991 3.657 12.5176 3.64327 12.5402ZM11.2171 13.0598C11.112 13.9802 11.0474 15.099 11.0474 16C11.0474 16.901 11.112 18.0198 11.2171 18.9402L11.2812 19.5009H16.2977H21.3143L21.3783 18.9402C21.6004 16.9959 21.6004 15.0041 21.3783 13.0598L21.3143 12.4991H16.2977H11.2812L11.2171 13.0598ZM23.0999 12.6764C23.3258 13.9509 23.3273 17.833 23.1024 19.2962L23.0708 19.5018L26.0144 19.4877L28.958 19.4735L29.0821 18.9538C29.3193 17.9611 29.3943 17.2511 29.3943 16C29.3943 14.7489 29.3193 14.0389 29.0821 13.0462L28.958 12.5265L26.0131 12.5123L23.0683 12.4982L23.0999 12.6764ZM4.54075 21.8057C5.1644 23.0485 5.9342 24.1267 6.9122 25.1273C7.67117 25.9039 8.19914 26.3449 9.04985 26.9127C10.1551 27.6504 11.4013 28.2331 12.6242 28.5842C12.9448 28.6763 13.2563 28.766 13.3165 28.7838C13.3778 28.8018 13.2158 28.595 12.9477 28.3133C11.5631 26.858 10.4676 24.4332 9.8126 21.3744L9.78624 21.2513H7.02439H4.26254L4.54075 21.8057ZM11.5937 21.2923C11.5939 21.3149 11.6931 21.7127 11.8143 22.1765C12.7521 25.766 14.587 28.253 16.2977 28.253C18.065 28.253 19.9018 25.6844 20.8618 21.8704C20.9389 21.5641 21.002 21.2995 21.002 21.2824C21.002 21.2653 18.8851 21.2513 16.2977 21.2513C13.7104 21.2513 11.5936 21.2697 11.5937 21.2923ZM22.7828 21.3744C22.1293 24.4266 21.0317 26.8588 19.6551 28.3053C19.3962 28.5774 19.1976 28.8 19.2136 28.8C19.2297 28.8 19.5405 28.7143 19.9044 28.6096C21.438 28.1682 22.9202 27.4202 24.284 26.3994C24.7919 26.0193 25.9277 24.9228 26.4011 24.3557C26.9102 23.7457 27.6095 22.6764 27.9992 21.9122L28.3361 21.2513H25.5727H22.8092L22.7828 21.3744Z" fill="#3B38EB"/>
</svg>
