<svg width="176" height="58" viewBox="0 0 176 58" fill="none" xmlns="http://www.w3.org/2000/svg">
<path d="M131.376 52C130.877 52 130.398 51.9214 129.938 51.7641C129.479 51.6068 129.078 51.3818 128.735 51.0891C128.392 50.792 128.147 50.4404 128 50.0341L129.268 49.5557C129.342 49.7654 129.483 49.9533 129.691 50.1193C129.904 50.2809 130.155 50.4076 130.446 50.4993C130.741 50.5911 131.051 50.637 131.376 50.637C131.723 50.637 132.048 50.5802 132.352 50.4666C132.66 50.353 132.907 50.1957 133.093 49.9948C133.284 49.7938 133.38 49.5579 133.38 49.287C133.38 49.0074 133.28 48.7781 133.08 48.599C132.885 48.4198 132.634 48.2779 132.326 48.173C132.022 48.0682 131.706 47.9895 131.376 47.9371C130.739 47.8322 130.166 47.6793 129.659 47.4784C129.156 47.2774 128.757 46.9956 128.462 46.633C128.171 46.2704 128.026 45.7986 128.026 45.2176C128.026 44.6715 128.18 44.1953 128.488 43.789C128.8 43.3827 129.21 43.0682 129.717 42.8453C130.229 42.6182 130.782 42.5046 131.376 42.5046C131.866 42.5046 132.339 42.5832 132.794 42.7405C133.254 42.8934 133.657 43.1184 134.004 43.4155C134.355 43.7082 134.607 44.0642 134.759 44.4836L133.477 44.9489C133.403 44.7348 133.262 44.5491 133.054 44.3919C132.846 44.2302 132.595 44.1035 132.3 44.0118C132.009 43.9201 131.701 43.8742 131.376 43.8742C131.029 43.8698 130.704 43.9266 130.4 44.0446C130.101 44.1581 129.856 44.3154 129.665 44.5164C129.474 44.7173 129.379 44.9511 129.379 45.2176C129.379 45.5452 129.468 45.7942 129.646 45.9646C129.824 46.135 130.062 46.2617 130.361 46.3447C130.665 46.4233 131.003 46.4954 131.376 46.5609C131.974 46.6571 132.527 46.8165 133.035 47.0393C133.546 47.2621 133.956 47.5592 134.264 47.9305C134.576 48.2975 134.733 48.7497 134.733 49.287C134.733 49.8287 134.576 50.3049 134.264 50.7156C133.956 51.1219 133.546 51.4386 133.035 51.6658C132.527 51.8886 131.974 52 131.376 52Z" fill="#0C1321" fill-opacity="0.36"/>
<path d="M138.882 52C138.283 52 137.737 51.8449 137.243 51.5347C136.753 51.2246 136.36 50.8095 136.065 50.2896C135.775 49.7654 135.629 49.1865 135.629 48.5531C135.629 48.0725 135.714 47.6247 135.883 47.2097C136.052 46.7903 136.284 46.4233 136.579 46.1088C136.878 45.7899 137.225 45.5408 137.62 45.3617C138.015 45.1826 138.435 45.0931 138.882 45.0931C139.48 45.0931 140.025 45.2481 140.515 45.5583C141.009 45.8685 141.401 46.2857 141.692 46.81C141.987 47.3342 142.134 47.9152 142.134 48.5531C142.134 49.0293 142.05 49.4749 141.881 49.8899C141.712 50.3049 141.477 50.6719 141.178 50.9908C140.883 51.3054 140.538 51.5522 140.144 51.7313C139.754 51.9104 139.333 52 138.882 52ZM138.882 50.637C139.242 50.637 139.565 50.5408 139.851 50.3486C140.137 50.1564 140.363 49.903 140.528 49.5885C140.697 49.2696 140.781 48.9244 140.781 48.5531C140.781 48.173 140.695 47.8235 140.521 47.5046C140.352 47.1857 140.124 46.9323 139.838 46.7444C139.552 46.5522 139.233 46.4561 138.882 46.4561C138.526 46.4561 138.203 46.5522 137.913 46.7444C137.626 46.9367 137.399 47.1922 137.23 47.5111C137.065 47.8301 136.982 48.1774 136.982 48.5531C136.982 48.9419 137.069 49.2936 137.243 49.6081C137.416 49.9227 137.646 50.1739 137.932 50.3617C138.223 50.5452 138.539 50.637 138.882 50.637Z" fill="#0C1321" fill-opacity="0.36"/>
<path d="M143.096 51.8296V42H144.449V51.8296H143.096Z" fill="#0C1321" fill-opacity="0.36"/>
<path d="M145.746 49.3722V45.2765H147.099V49.038C147.099 49.3307 147.17 49.5972 147.313 49.8375C147.456 50.0778 147.647 50.27 147.886 50.4142C148.124 50.554 148.386 50.6239 148.673 50.6239C148.963 50.6239 149.226 50.554 149.46 50.4142C149.698 50.27 149.887 50.0778 150.026 49.8375C150.169 49.5972 150.24 49.3307 150.24 49.038V45.2765H151.593L151.6 51.8296H150.247L150.24 51.1219C150.019 51.3927 149.744 51.6068 149.414 51.7641C149.085 51.9214 148.731 52 148.354 52C147.873 52 147.435 51.882 147.04 51.6461C146.645 51.4102 146.331 51.0935 146.097 50.6959C145.863 50.2984 145.746 49.8571 145.746 49.3722Z" fill="#0C1321" fill-opacity="0.36"/>
<path d="M156.339 46.6396H154.973L154.966 51.8296H153.613L153.62 46.6396H152.586V45.2765H153.62L153.613 43.2189H154.966L154.973 45.2765H156.339V46.6396Z" fill="#0C1321" fill-opacity="0.36"/>
<path d="M157.415 45.2765H158.768V51.8296H157.415V45.2765ZM158.104 44.3263C157.896 44.3263 157.722 44.2586 157.584 44.1232C157.445 43.9878 157.376 43.8174 157.376 43.6121C157.376 43.4111 157.445 43.2429 157.584 43.1075C157.722 42.9677 157.894 42.8978 158.098 42.8978C158.297 42.8978 158.466 42.9677 158.605 43.1075C158.744 43.2429 158.813 43.4111 158.813 43.6121C158.813 43.8174 158.744 43.9878 158.605 44.1232C158.471 44.2586 158.304 44.3263 158.104 44.3263Z" fill="#0C1321" fill-opacity="0.36"/>
<path d="M163.072 52C162.473 52 161.927 51.8449 161.433 51.5347C160.943 51.2246 160.55 50.8095 160.255 50.2896C159.965 49.7654 159.819 49.1865 159.819 48.5531C159.819 48.0725 159.904 47.6247 160.073 47.2097C160.242 46.7903 160.474 46.4233 160.769 46.1088C161.068 45.7899 161.415 45.5408 161.81 45.3617C162.204 45.1826 162.625 45.0931 163.072 45.0931C163.67 45.0931 164.214 45.2481 164.705 45.5583C165.199 45.8685 165.591 46.2857 165.882 46.81C166.177 47.3342 166.324 47.9152 166.324 48.5531C166.324 49.0293 166.24 49.4749 166.071 49.8899C165.901 50.3049 165.667 50.6719 165.368 50.9908C165.073 51.3054 164.728 51.5522 164.334 51.7313C163.943 51.9104 163.523 52 163.072 52ZM163.072 50.637C163.432 50.637 163.755 50.5408 164.041 50.3486C164.327 50.1564 164.553 49.903 164.718 49.5885C164.887 49.2696 164.971 48.9244 164.971 48.5531C164.971 48.173 164.884 47.8235 164.711 47.5046C164.542 47.1857 164.314 46.9323 164.028 46.7444C163.742 46.5522 163.423 46.4561 163.072 46.4561C162.716 46.4561 162.393 46.5522 162.103 46.7444C161.816 46.9367 161.589 47.1922 161.42 47.5111C161.255 47.8301 161.172 48.1774 161.172 48.5531C161.172 48.9419 161.259 49.2936 161.433 49.6081C161.606 49.9227 161.836 50.1739 162.122 50.3617C162.413 50.5452 162.729 50.637 163.072 50.637Z" fill="#0C1321" fill-opacity="0.36"/>
<path d="M173.23 47.7208V51.8296H171.877V48.055C171.877 47.7623 171.805 47.4959 171.662 47.2556C171.523 47.0153 171.334 46.8253 171.096 46.6855C170.862 46.5413 170.597 46.4692 170.302 46.4692C170.016 46.4692 169.754 46.5413 169.515 46.6855C169.277 46.8253 169.086 47.0153 168.943 47.2556C168.8 47.4959 168.728 47.7623 168.728 48.055V51.8296H167.375V45.2765H168.728V45.9712C168.954 45.7003 169.231 45.4862 169.561 45.329C169.89 45.1717 170.246 45.0931 170.628 45.0931C171.109 45.0931 171.547 45.211 171.942 45.4469C172.336 45.6828 172.648 45.9996 172.878 46.3971C173.112 46.7947 173.23 47.2359 173.23 47.7208Z" fill="#0C1321" fill-opacity="0.36"/>
<path d="M174.977 52C174.777 52 174.608 51.9301 174.469 51.7903C174.335 51.6505 174.268 51.4801 174.268 51.2792C174.268 51.0826 174.335 50.9144 174.469 50.7746C174.608 50.6348 174.777 50.5649 174.977 50.5649C175.176 50.5649 175.345 50.6348 175.484 50.7746C175.623 50.9144 175.692 51.0826 175.692 51.2792C175.692 51.4801 175.623 51.6505 175.484 51.7903C175.345 51.9301 175.176 52 174.977 52Z" fill="#0C1321" fill-opacity="0.36"/>
<path d="M82.7184 13.4679H88.3293V36.4037H82.7184L82.4655 33.5596C81.8369 34.5841 81.0014 35.4174 79.9589 36.0596C78.9318 36.6865 77.713 37 76.3026 37C74.601 37 73.0066 36.6789 71.5196 36.0367C70.0325 35.3945 68.7218 34.5076 67.5873 33.3761C66.4682 32.2446 65.5867 30.9373 64.9428 29.4541C64.3143 27.9709 64 26.3807 64 24.6835C64 23.0474 64.2989 21.5107 64.8968 20.0734C65.51 18.6361 66.3609 17.3746 67.4493 16.289C68.5378 15.2034 69.7949 14.3547 71.2206 13.7431C72.6463 13.1315 74.1794 12.8257 75.8197 12.8257C77.3374 12.8257 78.6942 13.1621 79.89 13.8349C81.1011 14.5076 82.1282 15.3639 82.9714 16.4037L82.7184 13.4679ZM76.1647 31.6101C77.3604 31.6101 78.4182 31.3119 79.3381 30.7156C80.2579 30.1193 80.9784 29.3165 81.4996 28.3073C82.0209 27.2829 82.2815 26.159 82.2815 24.9358C82.2815 23.6972 82.0209 22.5734 81.4996 21.5642C80.9784 20.5398 80.2502 19.7294 79.3151 19.133C78.3952 18.5367 77.3451 18.2385 76.1647 18.2385C74.9842 18.2385 73.9034 18.5443 72.9223 19.156C71.9565 19.7523 71.1823 20.555 70.5997 21.5642C70.0325 22.5734 69.7489 23.6972 69.7489 24.9358C69.7489 26.1743 70.0402 27.2982 70.6227 28.3073C71.2053 29.3165 71.9795 30.1193 72.9453 30.7156C73.9264 31.3119 74.9996 31.6101 76.1647 31.6101Z" fill="#111A2E"/>
<path d="M91.4528 36.4037L99.8692 24.8899L91.5218 13.445H98.4434L103.319 20.1193L108.217 13.445H115.138L106.791 24.8899L115.207 36.4037H108.286L103.319 29.6147L98.3744 36.4037H91.4528Z" fill="#111A2E"/>
<path d="M127.552 37C125.437 37 123.505 36.4572 121.757 35.3716C120.025 34.2859 118.638 32.8257 117.595 30.9908C116.568 29.156 116.054 27.13 116.054 24.9128C116.054 23.2462 116.353 21.6865 116.951 20.2339C117.549 18.7661 118.369 17.4817 119.412 16.3807C120.47 15.2645 121.696 14.393 123.091 13.7661C124.486 13.1391 125.973 12.8257 127.552 12.8257C129.346 12.8257 130.986 13.208 132.473 13.9725C133.976 14.7217 135.248 15.7538 136.291 17.0688C137.333 18.3838 138.092 19.8823 138.567 21.5642C139.042 23.2462 139.15 25.0046 138.889 26.8395H122.079C122.294 27.6957 122.647 28.4679 123.137 29.156C123.628 29.8287 124.249 30.3716 125 30.7844C125.751 31.182 126.602 31.3884 127.552 31.4037C128.533 31.419 129.423 31.1896 130.22 30.7156C131.032 30.2263 131.707 29.5688 132.243 28.7431L137.969 30.0734C137.034 32.107 135.639 33.7737 133.784 35.0734C131.929 36.3578 129.852 37 127.552 37ZM121.895 22.6422H133.209C133.041 21.7248 132.68 20.8991 132.128 20.1651C131.592 19.4159 130.925 18.8196 130.128 18.3761C129.331 17.9327 128.472 17.711 127.552 17.711C126.632 17.711 125.782 17.9327 125 18.3761C124.218 18.8043 123.551 19.393 122.999 20.1422C122.463 20.8761 122.095 21.7095 121.895 22.6422Z" fill="#111A2E"/>
<path d="M142.271 36.4037V2H147.882V36.4037H142.271Z" fill="#111A2E"/>
<path d="M170.389 13.4679H176V36.4037H170.389L170.136 33.5596C169.508 34.5841 168.672 35.4174 167.63 36.0596C166.602 36.6865 165.384 37 163.973 37C162.272 37 160.677 36.6789 159.19 36.0367C157.703 35.3945 156.392 34.5076 155.258 33.3761C154.139 32.2446 153.257 30.9373 152.613 29.4541C151.985 27.9709 151.671 26.3807 151.671 24.6835C151.671 23.0474 151.97 21.5107 152.568 20.0734C153.181 18.6361 154.032 17.3746 155.12 16.289C156.208 15.2034 157.466 14.3547 158.891 13.7431C160.317 13.1315 161.85 12.8257 163.49 12.8257C165.008 12.8257 166.365 13.1621 167.561 13.8349C168.772 14.5076 169.799 15.3639 170.642 16.4037L170.389 13.4679ZM163.835 31.6101C165.031 31.6101 166.089 31.3119 167.009 30.7156C167.929 30.1193 168.649 29.3165 169.17 28.3073C169.692 27.2829 169.952 26.159 169.952 24.9358C169.952 23.6972 169.692 22.5734 169.17 21.5642C168.649 20.5398 167.921 19.7294 166.986 19.133C166.066 18.5367 165.016 18.2385 163.835 18.2385C162.655 18.2385 161.574 18.5443 160.593 19.156C159.627 19.7523 158.853 20.555 158.27 21.5642C157.703 22.5734 157.42 23.6972 157.42 24.9358C157.42 26.1743 157.711 27.2982 158.293 28.3073C158.876 29.3165 159.65 30.1193 160.616 30.7156C161.597 31.3119 162.67 31.6101 163.835 31.6101Z" fill="#111A2E"/>
<g filter="url(#filter0_d_40_316)">
<rect x="4" y="2" width="50" height="50" rx="15" fill="#3B38EB"/>
</g>
<mask id="mask0_40_316" style="mask-type:alpha" maskUnits="userSpaceOnUse" x="4" y="2" width="50" height="50">
<rect x="4" y="2" width="50" height="50" rx="15" fill="#2521E7"/>
</mask>
<g mask="url(#mask0_40_316)">
<path d="M28.8163 8.19876C22.5097 21.7453 14.2919 35.0766 4.16864 48.2029L9.69444 57.5224C17.9817 48.7381 24.3281 39.3891 28.7292 29.471C31.4508 34.4352 33.9997 38.7949 36.3833 42.5457C33.8624 41.4326 29.9808 41.3087 24.7398 42.1639C22.3474 46.2022 18.8746 50.87 14.3244 56.1601C25.0232 50.5457 36.3478 50.9777 48.2879 57.4619C49.7683 53.689 51.4567 50.6046 53.3503 48.2029C45.2667 38.8967 37.0873 25.5654 28.8163 8.19876Z" fill="white"/>
<path d="M28.8163 8.19876C22.5097 21.7453 14.2919 35.0766 4.16864 48.2029L9.69444 57.5224C17.9817 48.7381 24.3281 39.3891 28.7292 29.471C31.4508 34.4352 33.9997 38.7949 36.3833 42.5457C33.8624 41.4326 29.9808 41.3087 24.7398 42.1639C22.3474 46.2022 18.8746 50.87 14.3244 56.1601C25.0232 50.5457 36.3478 50.9777 48.2879 57.4619C49.7683 53.689 51.4567 50.6046 53.3503 48.2029C45.2667 38.8967 37.0873 25.5654 28.8163 8.19876Z" fill="white"/>
<path d="M28.7294 29.471L28.8179 8.19874C22.5114 21.7453 14.2935 35.0765 4.17029 48.2029C10.9152 43.1281 19.102 36.8841 28.7294 29.471Z" fill="white"/>
<path d="M28.8162 8.19879L28.7276 29.471C39.9667 37.9501 48.1742 44.1956 53.3472 48.2029C45.2666 38.8967 37.0872 25.5654 28.8162 8.19879Z" fill="white"/>
<path d="M53.3487 48.2029C48.1786 44.1941 39.9726 37.9501 28.7291 29.471C31.4507 34.4352 33.9996 38.7949 36.3832 42.5457C38.4554 45.8085 40.4006 48.6098 42.2174 50.9526C44.4298 53.8011 46.4503 55.9713 48.2834 57.4619C49.7638 53.689 51.4522 50.6046 53.3458 48.2029H53.3487V48.2029Z" fill="white"/>
<path d="M42.2176 50.9537C40.4007 48.6106 38.457 45.809 36.3833 42.5459C33.8625 41.4326 29.9808 41.3088 24.7399 42.164C32.7186 44.622 38.544 47.5519 42.222 50.9537H42.2176V50.9537Z" fill="white"/>
<path d="M42.2175 50.9525C38.5396 47.5526 32.7141 44.6231 24.7354 42.1638C22.3429 46.2021 18.8701 50.87 14.3199 56.16C25.0188 50.5456 36.3434 50.9776 48.2835 57.4619C46.4504 55.9713 44.4255 53.8055 42.2175 50.9525Z" fill="white"/>
<path d="M9.69444 57.5224C17.9817 48.7381 24.3281 39.3891 28.7292 29.471C19.1019 36.8841 10.915 43.1281 4.16864 48.2029L9.69444 57.5224Z" fill="white"/>
</g>
<defs>
<filter id="filter0_d_40_316" x="0" y="0" width="58" height="58" filterUnits="userSpaceOnUse" color-interpolation-filters="sRGB">
<feFlood flood-opacity="0" result="BackgroundImageFix"/>
<feColorMatrix in="SourceAlpha" type="matrix" values="0 0 0 0 0 0 0 0 0 0 0 0 0 0 0 0 0 0 127 0" result="hardAlpha"/>
<feOffset dy="2"/>
<feGaussianBlur stdDeviation="2"/>
<feComposite in2="hardAlpha" operator="out"/>
<feColorMatrix type="matrix" values="0 0 0 0 0.145098 0 0 0 0 0.133333 0 0 0 0 0.729412 0 0 0 0.05 0"/>
<feBlend mode="normal" in2="BackgroundImageFix" result="effect1_dropShadow_40_316"/>
<feBlend mode="normal" in="SourceGraphic" in2="effect1_dropShadow_40_316" result="shape"/>
</filter>
</defs>
</svg>
